<svg xmlns="http://www.w3.org/2000/svg" viewBox="0 0 180 320" fill="none">
  <!-- Cable -->
  <rect x="88" y="0" width="4" height="45" rx="2" fill="#2A2825"/>
  <!-- Socket -->
  <rect x="72" y="43" width="36" height="18" rx="7" fill="#2A2825"/>
  <rect x="76" y="59" width="28" height="10" rx="4" fill="#B8B090"/>

  <!-- Arm izquierdo -->
  <path d="M90 67 C62 88 42 135 52 182 C64 158 77 142 90 132"
        fill="#CECA9E" stroke="#AAA07A" stroke-width="0.8"/>
  <!-- Arm derecho -->
  <path d="M90 67 C118 88 138 135 128 182 C116 158 103 142 90 132"
        fill="#CECA9E" stroke="#AAA07A" stroke-width="0.8"/>
  <!-- Arm frontal -->
  <path d="M90 67 C80 95 76 148 80 184 C84 158 96 158 100 184 C104 148 100 95 90 67"
        fill="#BEBEA6" stroke="#AAA07A" stroke-width="0.8"/>

  <!-- Base inferior lámpara -->
  <ellipse cx="90" cy="183" rx="24" ry="7" fill="#A8A07A"/>

  <!-- Bulb Edison -->
  <line x1="90" y1="188" x2="90" y2="196" stroke="#888" stroke-width="1.2"/>
  <ellipse cx="90" cy="218" rx="10" ry="24" fill="#E8D898" opacity="0.55"/>
  <!-- Filamento -->
  <path d="M86 208 Q87 214 90 212 Q93 210 94 216" stroke="#C89040" stroke-width="1.8" fill="none" stroke-linecap="round"/>
</svg>
