<svg viewBox="0 0 25 25" fill="none" xmlns="http://www.w3.org/2000/svg">
  <path d="M11.25 25V19.8125L7.1875 23.8125L5.4375 22.0625L11.25 16.25V13.75H8.75L2.9375 19.5625L1.1875 17.8125L5.1875 13.75H0V11.25H5.1875L1.1875 7.1875L2.9375 5.4375L8.75 11.25H11.25V8.75L5.4375 2.9375L7.1875 1.1875L11.25 5.1875V0H13.75V5.1875L17.8125 1.1875L19.5625 2.9375L13.75 8.75V11.25H16.25L22.0625 5.4375L23.8125 7.1875L19.8125 11.25H25V13.75H19.8125L23.8125 17.8125L22.0625 19.5625L16.25 13.75H13.75V16.25L19.5625 22.0625L17.8125 23.8125L13.75 19.8125V25H11.25Z" fill="currentColor" />
</svg>
