<svg viewBox="0 0 19 24" fill="none" xmlns="http://www.w3.org/2000/svg">
  <path d="M2.5 24C1.8125 24 1.22396 23.7552 0.734375 23.2656C0.244792 22.776 0 22.1875 0 21.5V2.5C0 1.8125 0.244792 1.22396 0.734375 0.734375C1.22396 0.244792 1.8125 0 2.5 0H16.5C17.1875 0 17.776 0.244792 18.2656 0.734375C18.7552 1.22396 19 1.8125 19 2.5V21.5C19 22.1875 18.7552 22.776 18.2656 23.2656C17.776 23.7552 17.1875 24 16.5 24H2.5ZM2.5 21.5H16.5V2.5H2.5V21.5ZM9.5 5C9.14583 5 8.84896 4.88021 8.60938 4.64062C8.36979 4.40104 8.25 4.10417 8.25 3.75C8.25 3.39583 8.36979 3.09896 8.60938 2.85938C8.84896 2.61979 9.14583 2.5 9.5 2.5C9.85417 2.5 10.151 2.61979 10.3906 2.85938C10.6302 3.09896 10.75 3.39583 10.75 3.75V5.5C10.75 5.85417 10.6302 6.15104 10.3906 6.39062C10.151 6.63021 9.85417 6.75 9.5 6.75C9.14583 6.75 8.84896 6.63021 8.60938 6.39062C8.36979 6.15104 8.25 5.85417 8.25 5.5V5ZM9.5 22C8.8125 22 8.22396 21.7552 7.73438 21.2656C7.24479 20.776 7 20.1875 7 19.5H12C12 20.1875 11.7552 20.776 11.2656 21.2656C10.776 21.7552 10.1875 22 9.5 22Z" fill="currentColor" />
</svg>
