<?xml version="1.0" encoding="utf-8"?>
<!-- Generator: Adobe Illustrator 27.5.0, SVG Export Plug-In . SVG Version: 6.00 Build 0)  -->
<svg version="1.1" id="Layer_1" xmlns="http://www.w3.org/2000/svg" xmlns:xlink="http://www.w3.org/1999/xlink" x="0px" y="0px"
	 viewBox="120 120 260 260" style="enable-background:new 0 0 500 500;" xml:space="preserve">

<g>
	<g>
		<g>
			<path style="fill:currentColor;" d="M191.422,124.122L191.422,124.122c1.898-0.509,3.849,0.618,4.358,2.516l5.432,20.274
				c0.509,1.898-0.618,3.849-2.516,4.358h0c-1.898,0.509-3.849-0.618-4.358-2.516l-5.432-20.274
				C188.397,126.582,189.524,124.631,191.422,124.122z"/>
			<path style="fill:currentColor;" d="M150.523,165.021L150.523,165.021c0.509-1.898,2.46-3.025,4.358-2.516l20.274,5.432
				c1.898,0.509,3.025,2.46,2.516,4.358l0,0c-0.509,1.898-2.46,3.025-4.358,2.516l-20.274-5.432
				C151.141,168.87,150.014,166.919,150.523,165.021z"/>
		</g>
		<path style="fill:currentColor;" d="M183.013,156.536l-0.076,0.076c-1.369,1.369-3.588,1.369-4.956,0l-14.917-14.917
			c-1.369-1.369-1.369-3.588,0-4.956l0.076-0.076c1.369-1.369,3.588-1.369,4.956,0l14.917,14.917
			C184.382,152.949,184.382,155.168,183.013,156.536z"/>
	</g>
	<g>
		<g>
			<path style="fill:currentColor;" d="M308.58,124.122L308.58,124.122c-1.898-0.509-3.849,0.618-4.358,2.516l-5.432,20.274
				c-0.509,1.898,0.618,3.849,2.516,4.358l0,0c1.898,0.509,3.849-0.618,4.358-2.516l5.432-20.274
				C311.604,126.582,310.478,124.631,308.58,124.122z"/>
			<path style="fill:currentColor;" d="M349.479,165.021L349.479,165.021c-0.509-1.898-2.46-3.025-4.358-2.516l-20.274,5.432
				c-1.898,0.509-3.025,2.46-2.516,4.358l0,0c0.509,1.898,2.46,3.025,4.358,2.516l20.274-5.432
				C348.861,168.87,349.987,166.919,349.479,165.021z"/>
		</g>
		<path style="fill:currentColor;" d="M316.988,156.536l0.076,0.076c1.369,1.369,3.588,1.369,4.956,0l14.917-14.917
			c1.369-1.369,1.369-3.588,0-4.956l-0.076-0.076c-1.369-1.369-3.588-1.369-4.956,0l-14.917,14.917
			C315.62,152.949,315.62,155.168,316.988,156.536z"/>
	</g>
	<path style="fill:currentColor;" d="M344.085,376h-188.16c-4.788,0-8.133-4.74-6.547-9.242l13.982-39.553
		c0.983-2.774,3.614-4.629,6.547-4.629h160.195c2.933,0,5.549,1.855,6.531,4.629l13.982,39.553
		C352.217,371.26,348.872,376,344.085,376z"/>
	<path style="fill:currentColor;" d="M318.514,322.575H181.48l12.587-135.798c1.094-11.731,10.939-20.704,22.733-20.704h66.409
		c11.779,0,21.624,8.973,22.717,20.704L318.514,322.575z"/>
	<g>
		<path style="fill:#FFFFFF;" d="M251.749,263.366h-3.497c-1.994,0-3.668-1.5-3.886-3.482l-5.301-48.234
			c-0.254-2.314,1.558-4.337,3.886-4.337h14.099c2.328,0,4.141,2.022,3.886,4.337l-5.301,48.234
			C255.417,261.865,253.743,263.366,251.749,263.366z"/>
		<circle style="fill:#FFFFFF;" cx="250.001" cy="276.613" r="4.714"/>
	</g>
	<path style="opacity:0.05;fill:#FFFFFF;" d="M294.1,247.717c0,27.378-6.531,52.997-17.866,74.858
		c-11.668,22.511-28.44,41.044-48.463,53.425h-71.846c-4.788,0-8.133-4.74-6.547-9.242l13.982-39.553
		c0.983-2.774,3.614-4.629,6.547-4.629h11.573l12.587-135.798c1.094-11.731,10.939-20.704,22.733-20.704h55.692
		C286.126,189.346,294.1,217.453,294.1,247.717z"/>
</g>
</svg>
