<svg viewBox="0 0 25 23" fill="none" xmlns="http://www.w3.org/2000/svg">
  <path d="M0 22.5V20H2.5V0H22.5V20H25V22.5H0ZM5 5H15V2.5H5V5ZM5 10H15V7.5H5V10ZM5 20H20V12.5H17.5V14.7812C17.7917 14.9896 18.0208 15.25 18.1875 15.5625C18.3542 15.875 18.4375 16.2083 18.4375 16.5625C18.4375 17.1667 18.224 17.6823 17.7969 18.1094C17.3698 18.5365 16.8542 18.75 16.25 18.75C15.6458 18.75 15.1302 18.5365 14.7031 18.1094C14.276 17.6823 14.0625 17.1667 14.0625 16.5625C14.0625 16.2083 14.1458 15.875 14.3125 15.5625C14.4792 15.25 14.7083 14.9896 15 14.7812V12.5H5V20ZM17.5 5H20V2.5H17.5V5ZM17.5 10H20V7.5H17.5V10Z" fill="currentColor" />
</svg>
