<svg viewBox="0 0 23 23" fill="none" xmlns="http://www.w3.org/2000/svg">
  <path d="M0 22.5V20H2.5V2.5C2.5 1.8125 2.74479 1.22396 3.23438 0.734375C3.72396 0.244792 4.3125 0 5 0H17.5C18.1875 0 18.776 0.244792 19.2656 0.734375C19.7552 1.22396 20 1.8125 20 2.5V20H22.5V22.5H0ZM17.5 20V2.5H5V20H17.5ZM13.75 12.5C14.1042 12.5 14.401 12.3802 14.6406 12.1406C14.8802 11.901 15 11.6042 15 11.25C15 10.8958 14.8802 10.599 14.6406 10.3594C14.401 10.1198 14.1042 10 13.75 10C13.3958 10 13.099 10.1198 12.8594 10.3594C12.6198 10.599 12.5 10.8958 12.5 11.25C12.5 11.6042 12.6198 11.901 12.8594 12.1406C13.099 12.3802 13.3958 12.5 13.75 12.5ZM5 2.5V20V2.5Z" fill="currentColor" />
</svg>
