<svg viewBox="0 0 20 24" fill="none" xmlns="http://www.w3.org/2000/svg">
  <path d="M2.5 24C1.8125 24 1.22396 23.7552 0.734375 23.2656C0.244792 22.776 0 22.1875 0 21.5V2.5C0 1.8125 0.244792 1.22396 0.734375 0.734375C1.22396 0.244792 1.8125 0 2.5 0H17.5C18.1875 0 18.776 0.244792 19.2656 0.734375C19.7552 1.22396 20 1.8125 20 2.5V21.5C20 22.1875 19.7552 22.776 19.2656 23.2656C18.776 23.7552 18.1875 24 17.5 24H2.5ZM2.5 21.5H17.5V10H2.5V21.5ZM2.5 7.5H17.5V2.5H2.5V7.5ZM6.25 5C5.89583 5 5.59896 4.88021 5.35938 4.64062C5.11979 4.40104 5 4.10417 5 3.75C5 3.39583 5.11979 3.09896 5.35938 2.85938C5.59896 2.61979 5.89583 2.5 6.25 2.5C6.60417 2.5 6.90104 2.61979 7.14062 2.85938C7.38021 3.09896 7.5 3.39583 7.5 3.75C7.5 4.10417 7.38021 4.40104 7.14062 4.64062C6.90104 4.88021 6.60417 5 6.25 5Z" fill="currentColor" />
</svg>
