<svg width="23" height="23" viewBox="0 0 23 23" fill="none" xmlns="http://www.w3.org/2000/svg">
<path d="M2.5 22.5C1.8125 22.5 1.22396 22.2552 0.734375 21.7656C0.244792 21.276 0 20.6875 0 20V2.5C0 1.8125 0.244792 1.22396 0.734375 0.734375C1.22396 0.244792 1.8125 0 2.5 0H20C20.6875 0 21.276 0.244792 21.7656 0.734375C22.2552 1.22396 22.5 1.8125 22.5 2.5V20C22.5 20.6875 22.2552 21.276 21.7656 21.7656C21.276 22.2552 20.6875 22.5 20 22.5H2.5ZM2.5 11.25V20H20V11.25H17.5V17.5H5V11.25H2.5ZM7.5 15H15V11.25H7.5V15ZM2.5 8.75H20V2.5H2.5V8.75ZM6.25 6.25C5.89583 6.25 5.59896 6.13021 5.35938 5.89062C5.11979 5.65104 5 5.35417 5 5C5 4.64583 5.11979 4.34896 5.35938 4.10938C5.59896 3.86979 5.89583 3.75 6.25 3.75C6.60417 3.75 6.90104 3.86979 7.14062 4.10938C7.38021 4.34896 7.5 4.64583 7.5 5C7.5 5.35417 7.38021 5.65104 7.14062 5.89062C6.90104 6.13021 6.60417 6.25 6.25 6.25ZM11.25 6.25C10.8958 6.25 10.599 6.13021 10.3594 5.89062C10.1198 5.65104 10 5.35417 10 5C10 4.64583 10.1198 4.34896 10.3594 4.10938C10.599 3.86979 10.8958 3.75 11.25 3.75C11.6042 3.75 11.901 3.86979 12.1406 4.10938C12.3802 4.34896 12.5 4.64583 12.5 5C12.5 5.35417 12.3802 5.65104 12.1406 5.89062C11.901 6.13021 11.6042 6.25 11.25 6.25ZM16.25 6.25C15.8958 6.25 15.599 6.13021 15.3594 5.89062C15.1198 5.65104 15 5.35417 15 5C15 4.64583 15.1198 4.34896 15.3594 4.10938C15.599 3.86979 15.8958 3.75 16.25 3.75C16.6042 3.75 16.901 3.86979 17.1406 4.10938C17.3802 4.34896 17.5 4.64583 17.5 5C17.5 5.35417 17.3802 5.65104 17.1406 5.89062C16.901 6.13021 16.6042 6.25 16.25 6.25Z" fill="#243142"/>
</svg>
