<svg width="18" height="25" viewBox="0 0 18 25" fill="none" xmlns="http://www.w3.org/2000/svg">
<path d="M15 25H2.5C1.8125 25 1.22396 24.7552 0.734375 24.2656C0.244792 23.776 0 23.1875 0 22.5V2.5C0 1.8125 0.244792 1.22396 0.734375 0.734375C1.22396 0.244792 1.8125 0 2.5 0H15C15.6875 0 16.276 0.244792 16.7656 0.734375C17.2552 1.22396 17.5 1.8125 17.5 2.5V22.5C17.5 23.1875 17.2552 23.776 16.7656 24.2656C16.276 24.7552 15.6875 25 15 25ZM15 22.5V2.5H2.5V22.5H15ZM8.75 8.75C9.4375 8.75 10.026 8.50521 10.5156 8.01562C11.0052 7.52604 11.25 6.9375 11.25 6.25C11.25 5.5625 11.0052 4.97396 10.5156 4.48438C10.026 3.99479 9.4375 3.75 8.75 3.75C8.0625 3.75 7.47396 3.99479 6.98438 4.48438C6.49479 4.97396 6.25 5.5625 6.25 6.25C6.25 6.9375 6.49479 7.52604 6.98438 8.01562C7.47396 8.50521 8.0625 8.75 8.75 8.75ZM8.75 21.25C10.125 21.25 11.3021 20.7604 12.2812 19.7812C13.2604 18.8021 13.75 17.625 13.75 16.25C13.75 14.875 13.2604 13.6979 12.2812 12.7188C11.3021 11.7396 10.125 11.25 8.75 11.25C7.375 11.25 6.19792 11.7396 5.21875 12.7188C4.23958 13.6979 3.75 14.875 3.75 16.25C3.75 17.625 4.23958 18.8021 5.21875 19.7812C6.19792 20.7604 7.375 21.25 8.75 21.25ZM8.75 18.75C8.0625 18.75 7.47396 18.5052 6.98438 18.0156C6.49479 17.526 6.25 16.9375 6.25 16.25C6.25 15.5625 6.49479 14.974 6.98438 14.4844C7.47396 13.9948 8.0625 13.75 8.75 13.75C9.4375 13.75 10.026 13.9948 10.5156 14.4844C11.0052 14.974 11.25 15.5625 11.25 16.25C11.25 16.9375 11.0052 17.526 10.5156 18.0156C10.026 18.5052 9.4375 18.75 8.75 18.75ZM2.5 2.5V22.5V2.5Z" fill="#292824"/>
</svg>
