<svg viewBox="0 0 512 512" fill="none" xmlns="http://www.w3.org/2000/svg" preserveAspectRatio="xMidYMid meet">
  <g transform="translate(0,512) scale(0.1,-0.1)" fill="currentColor" stroke="none">
    <path d="M2507 5069 c-36 -21 -47 -63 -47 -184 0 -155 21 -195 100 -195 79 0 100 40 100 195 0 123 -11 164 -49 185 -25 13 -81 12 -104 -1z"/>
    <path d="M241 4996 c-46 -25 -63 -87 -38 -134 17 -29 163 -151 202 -168 41 -17 81 -7 110 28 49 58 32 103 -71 188 -128 107 -149 116 -203 86z"/>
    <path d="M4779 4992 c-64 -43 -182 -149 -190 -170 -15 -39 -10 -69 16 -100 29 -35 69 -45 110 -28 39 17 185 139 202 168 49 89 -55 187 -138 130z"/>
    <path d="M843 4482 c-47 -7 -83 -65 -75 -121 5 -35 176 -208 214 -216 78 -18 145 71 105 142 -7 12 -48 59 -92 106 -79 82 -104 96 -152 89z"/>
    <path d="M4231 4482 c-24 -4 -174 -151 -198 -195 -40 -71 27 -160 105 -142 38 8 207 180 213 215 13 77 -43 133 -120 122z"/>
    <path d="M2507 4289 c-36 -21 -47 -63 -47 -184 0 -155 21 -195 100 -195 79 0 100 40 100 195 0 123 -11 164 -49 185 -25 13 -81 12 -104 -1z"/>
    <path d="M1313 3875 c-30 -21 -46 -75 -34 -109 6 -14 41 -67 77 -117 78 -106 113 -128 167 -106 45 19 62 44 62 92 0 35 -10 54 -69 133 -38 51 -78 99 -89 107 -28 19 -87 19 -114 0z"/>
    <path d="M3693 3875 c-11 -8 -51 -56 -89 -107 -59 -79 -69 -98 -69 -133 0 -48 17 -73 63 -92 53 -22 88 0 166 106 36 50 71 103 77 117 12 34 -4 88 -34 109 -27 19 -86 19 -114 0z"/>
    <path d="M2507 3509 c-36 -21 -47 -63 -47 -184 0 -155 21 -195 100 -195 79 0 100 40 100 195 0 123 -11 164 -49 185 -25 13 -81 12 -104 -1z"/>
    <path d="M1761 3232 c-41 -20 -54 -46 -48 -96 5 -41 82 -191 120 -233 63 -70 182 -7 164 87 -6 28 -90 184 -121 223 -22 28 -78 37 -115 19z"/>
    <path d="M3292 3239 c-18 -4 -40 -15 -48 -25 -31 -40 -115 -196 -121 -224 -18 -94 101 -157 164 -87 43 47 116 192 121 239 4 41 1 50 -22 71 -32 30 -51 35 -94 26z"/>
    <path d="M2507 2729 c-36 -21 -47 -63 -47 -184 0 -155 21 -195 100 -195 79 0 100 40 100 195 0 123 -11 164 -49 185 -25 13 -81 12 -104 -1z"/>
    <path d="M361 2672 c-41 -41 -42 -89 -3 -132 25 -29 34 -32 122 -40 157 -15 175 -14 212 19 26 23 32 36 31 65 -1 44 -25 84 -59 96 -13 5 -80 13 -149 16 l-124 7 -30 -31z"/>
    <path d="M4512 2690 c-71 -8 -97 -26 -112 -78 -11 -43 2 -75 42 -105 26 -19 34 -20 160 -10 130 11 133 11 160 42 39 43 38 92 -1 132 -28 27 -34 29 -108 31 l-141 3 0 -15z"/>
    <path d="M1141 2536 c-47 -26 -63 -84 -37 -135 12 -22 41 -40 131 -80 63 -28 124 -51 136 -51 50 0 99 49 99 100 0 58 -42 90 -202 154 -75 29 -93 31 -127 12z"/>
    <path d="M2104 2531 c-45 -27 -57 -70 -38 -129 36 -106 68 -142 127 -142 30 0 45 7 69 30 27 27 30 37 26 73 -3 23 -17 68 -33 101 -21 44 -35 61 -61 72 -43 18 -53 18 -90 -5z"/>
    <path d="M2922 2537 c-12 -7 -29 -22 -37 -33 -19 -28 -95 -220 -95 -242 0 -9 9 -31 20 -49 32 -53 103 -60 152 -16 15 14 79 160 99 227 11 39 -12 91 -50 110 -36 19 -58 20 -89 3z"/>
    <path d="M3835 2516 c-155 -64 -185 -87 -185 -147 0 -50 49 -99 100 -99 11 0 72 23 135 51 119 53 145 76 145 128 0 51 -49 101 -97 101 -10 0 -54 -15 -98 -34z"/>
    <path d="M1786 2119 c-18 -21 -26 -42 -26 -67 0 -34 8 -45 96 -129 106 -102 138 -117 192 -89 37 19 52 44 52 85 0 47 -6 56 -106 146 -88 80 -97 85 -138 85 -37 0 -48 -5 -70 -31z"/>
    <path d="M3126 2065 c-100 -90 -106 -99 -106 -146 0 -41 15 -66 52 -85 54 -28 86 -13 192 89 88 84 96 95 96 129 0 25 -8 46 -26 67 -22 26 -33 31 -70 31 -41 0 -50 -5 -138 -85z"/>
    <path d="M2507 2089 c-28 -16 -47 -64 -47 -117 l0 -49 -65 -5 c-72 -6 -111 -26 -125 -64 -6 -14 -10 -113 -10 -219 l0 -194 -38 -11 c-79 -21 -77 -6 -80 -421 l-3 -369 -870 -2 -871 -3 -29 -33 c-40 -44 -40 -93 0 -133 l29 -29 937 0 c623 0 943 3 956 10 47 26 49 46 49 430 l0 360 220 0 220 0 0 -360 c0 -384 2 -404 49 -430 13 -7 386 -10 1126 -10 l1106 0 24 24 c47 47 43 112 -9 150 -27 21 -35 21 -1061 24 l-1034 2 -3 369 c-3 415 -1 400 -80 421 l-38 11 0 194 c0 106 -4 205 -10 219 -14 38 -53 58 -125 64 l-65 5 0 49 c0 54 -20 102 -49 118 -25 13 -81 12 -104 -1z m153 -509 l0 -140 -100 0 -100 0 0 140 0 140 100 0 100 0 0 -140z"/>
    <path d="M35 606 c-32 -32 -40 -69 -25 -107 17 -39 46 -59 90 -59 44 0 73 20 90 59 15 38 7 75 -25 107 -33 33 -97 33 -130 0z"/>
    <path d="M72 229 c-35 -10 -72 -59 -72 -94 0 -38 37 -83 77 -94 53 -15 4913 -15 4966 0 40 11 77 56 77 94 0 38 -37 83 -77 94 -50 14 -4923 14 -4971 0z"/>
  </g>
</svg>
